<mxfile host="app.diagrams.net" agent="Mozilla/5.0 (Windows NT 10.0; Win64; x64; rv:139.0) Gecko/20100101 Firefox/139.0" version="27.1.6" pages="2">
  <diagram name="Page-1" id="Ha0MgVNEtsTLosOIZYmX">
    <mxGraphModel dx="1123" dy="673" grid="1" gridSize="10" guides="1" tooltips="1" connect="1" arrows="1" fold="1" page="1" pageScale="1" pageWidth="3300" pageHeight="4681" math="0" shadow="0">
      <root>
        <mxCell id="0" />
        <mxCell id="1" parent="0" />
        <mxCell id="TfQsHLih08UGCaOp2INQ-1" value="actor&#xa;Diabetes Experts" style="triangle;fillColor=#ffe6cc;strokeColor=#d79b00;fontColor=#000000;" parent="1" name="actor" vertex="1">
          <mxGeometry x="680" y="310" width="100" height="50" as="geometry" />
        </mxCell>
        <mxCell id="TfQsHLih08UGCaOp2INQ-7" style="edgeStyle=orthogonalEdgeStyle;rounded=0;orthogonalLoop=1;jettySize=auto;html=1;entryX=0;entryY=0.5;entryDx=0;entryDy=0;" parent="1" source="TfQsHLih08UGCaOp2INQ-2" target="TfQsHLih08UGCaOp2INQ-6" edge="1">
          <mxGeometry relative="1" as="geometry" />
        </mxCell>
        <mxCell id="TfQsHLih08UGCaOp2INQ-2" value="generate:train" style="rounded=1;whiteSpace=wrap;html=1;arcSize=50;fillColor=#e1d5e7;strokeColor=#9673a6;" parent="1" name="generate:train" vertex="1">
          <mxGeometry x="840" y="310" width="100" height="50" as="geometry" />
        </mxCell>
        <mxCell id="TfQsHLih08UGCaOp2INQ-5" value="&lt;div&gt;error&lt;/div&gt;&lt;div&gt;--&amp;gt;&lt;/div&gt;" style="text;html=1;align=center;verticalAlign=middle;whiteSpace=wrap;rounded=0;dashed=1;fillColor=#f5f5f5;fontColor=#333333;strokeColor=#666666;strokeWidth=2;" parent="1" name="text" vertex="1">
          <mxGeometry x="780" y="320" width="60" height="30" as="geometry" />
        </mxCell>
        <mxCell id="TfQsHLih08UGCaOp2INQ-6" value="model:semantic&#xa;Relationships" style="shape=hexagon;perimeter=hexagonPerimeter2;fillColor=#b0e3e6;strokeColor=#0e8088;" parent="1" name="model" vertex="1">
          <mxGeometry x="1000" y="310" width="120" height="50" as="geometry" />
        </mxCell>
        <mxCell id="TfQsHLih08UGCaOp2INQ-12" style="edgeStyle=orthogonalEdgeStyle;rounded=0;orthogonalLoop=1;jettySize=auto;html=1;entryX=0;entryY=0.5;entryDx=0;entryDy=0;" parent="1" source="TfQsHLih08UGCaOp2INQ-8" target="TfQsHLih08UGCaOp2INQ-11" edge="1">
          <mxGeometry relative="1" as="geometry" />
        </mxCell>
        <mxCell id="TfQsHLih08UGCaOp2INQ-8" value="transform:embed" style="rounded=1;whiteSpace=wrap;html=1;arcSize=50;fillColor=#f8cecc;strokeColor=#b85450;" parent="1" name="transform" vertex="1">
          <mxGeometry x="1180" y="310" width="100" height="50" as="geometry" />
        </mxCell>
        <mxCell id="TfQsHLih08UGCaOp2INQ-10" value="&lt;div&gt;error&lt;/div&gt;&lt;div&gt;--&amp;gt;&lt;/div&gt;" style="text;html=1;align=center;verticalAlign=middle;whiteSpace=wrap;rounded=0;dashed=1;fillColor=#f5f5f5;fontColor=#333333;strokeColor=#666666;strokeWidth=2;" parent="1" name="text" vertex="1">
          <mxGeometry x="1120" y="320" width="60" height="30" as="geometry" />
        </mxCell>
        <mxCell id="TfQsHLih08UGCaOp2INQ-14" style="edgeStyle=orthogonalEdgeStyle;rounded=0;orthogonalLoop=1;jettySize=auto;html=1;entryX=0;entryY=0.5;entryDx=0;entryDy=0;" parent="1" source="TfQsHLih08UGCaOp2INQ-11" target="TfQsHLih08UGCaOp2INQ-13" edge="1">
          <mxGeometry relative="1" as="geometry" />
        </mxCell>
        <mxCell id="TfQsHLih08UGCaOp2INQ-11" value="data:matrix&#xa;Single MatrixÂ &#xa;Clusters and sub-criteria" style="rectangle;fillColor=#fff2cc;strokeColor=#d6b656;" parent="1" name="data" vertex="1">
          <mxGeometry x="1340" y="310" width="100" height="50" as="geometry" />
        </mxCell>
        <mxCell id="TfQsHLih08UGCaOp2INQ-16" style="edgeStyle=orthogonalEdgeStyle;rounded=0;orthogonalLoop=1;jettySize=auto;html=1;entryX=0.5;entryY=0;entryDx=0;entryDy=0;" parent="1" source="TfQsHLih08UGCaOp2INQ-13" target="TfQsHLih08UGCaOp2INQ-15" edge="1">
          <mxGeometry relative="1" as="geometry" />
        </mxCell>
        <mxCell id="TfQsHLih08UGCaOp2INQ-13" value="transform:embed" style="rounded=1;whiteSpace=wrap;html=1;arcSize=50;fillColor=#f8cecc;strokeColor=#b85450;" parent="1" name="transform" vertex="1">
          <mxGeometry x="1500" y="310" width="100" height="50" as="geometry" />
        </mxCell>
        <mxCell id="TfQsHLih08UGCaOp2INQ-18" style="edgeStyle=orthogonalEdgeStyle;rounded=0;orthogonalLoop=1;jettySize=auto;html=1;entryX=0.5;entryY=0;entryDx=0;entryDy=0;" parent="1" source="TfQsHLih08UGCaOp2INQ-15" target="TfQsHLih08UGCaOp2INQ-17" edge="1">
          <mxGeometry relative="1" as="geometry" />
        </mxCell>
        <mxCell id="TfQsHLih08UGCaOp2INQ-15" value="data:matrix&#xa;Normalized&#xa;Matrix" style="rectangle;fillColor=#fff2cc;strokeColor=#d6b656;" parent="1" name="data" vertex="1">
          <mxGeometry x="1500" y="420" width="100" height="50" as="geometry" />
        </mxCell>
        <mxCell id="TfQsHLih08UGCaOp2INQ-56" style="edgeStyle=orthogonalEdgeStyle;rounded=0;orthogonalLoop=1;jettySize=auto;html=1;entryX=1;entryY=0.5;entryDx=0;entryDy=0;" parent="1" source="TfQsHLih08UGCaOp2INQ-17" target="TfQsHLih08UGCaOp2INQ-19" edge="1">
          <mxGeometry relative="1" as="geometry" />
        </mxCell>
        <mxCell id="TfQsHLih08UGCaOp2INQ-17" value="transform:embed" style="rounded=1;whiteSpace=wrap;html=1;arcSize=50;fillColor=#f8cecc;strokeColor=#b85450;" parent="1" name="transform" vertex="1">
          <mxGeometry x="1500" y="530" width="100" height="50" as="geometry" />
        </mxCell>
        <mxCell id="TfQsHLih08UGCaOp2INQ-22" style="edgeStyle=orthogonalEdgeStyle;rounded=0;orthogonalLoop=1;jettySize=auto;html=1;entryX=1;entryY=0.5;entryDx=0;entryDy=0;" parent="1" source="TfQsHLih08UGCaOp2INQ-19" target="TfQsHLih08UGCaOp2INQ-21" edge="1">
          <mxGeometry relative="1" as="geometry" />
        </mxCell>
        <mxCell id="TfQsHLih08UGCaOp2INQ-19" value="data:matrix&#xa;Total Relationship&#xa;Matrix" style="rectangle;fillColor=#fff2cc;strokeColor=#d6b656;" parent="1" name="data" vertex="1">
          <mxGeometry x="1340" y="530" width="100" height="50" as="geometry" />
        </mxCell>
        <mxCell id="TfQsHLih08UGCaOp2INQ-24" style="edgeStyle=orthogonalEdgeStyle;rounded=0;orthogonalLoop=1;jettySize=auto;html=1;entryX=1;entryY=0.5;entryDx=0;entryDy=0;" parent="1" source="TfQsHLih08UGCaOp2INQ-21" target="TfQsHLih08UGCaOp2INQ-23" edge="1">
          <mxGeometry relative="1" as="geometry" />
        </mxCell>
        <mxCell id="TfQsHLih08UGCaOp2INQ-21" value="generate:train" style="rounded=1;whiteSpace=wrap;html=1;arcSize=50;fillColor=#e1d5e7;strokeColor=#9673a6;" parent="1" name="generate:train" vertex="1">
          <mxGeometry x="1180" y="530" width="100" height="50" as="geometry" />
        </mxCell>
        <mxCell id="TfQsHLih08UGCaOp2INQ-23" value="model:semantic&#xa;Relationship&#xa;Diagram" style="shape=hexagon;perimeter=hexagonPerimeter2;fillColor=#b0e3e6;strokeColor=#0e8088;" parent="1" name="model" vertex="1">
          <mxGeometry x="1000" y="530" width="120" height="50" as="geometry" />
        </mxCell>
        <mxCell id="TfQsHLih08UGCaOp2INQ-29" style="edgeStyle=orthogonalEdgeStyle;rounded=0;orthogonalLoop=1;jettySize=auto;html=1;exitX=0.5;exitY=1;exitDx=0;exitDy=0;entryX=0.5;entryY=0;entryDx=0;entryDy=0;" parent="1" source="TfQsHLih08UGCaOp2INQ-25" target="TfQsHLih08UGCaOp2INQ-28" edge="1">
          <mxGeometry relative="1" as="geometry" />
        </mxCell>
        <mxCell id="TfQsHLih08UGCaOp2INQ-25" value="transform:embed" style="rounded=1;whiteSpace=wrap;html=1;arcSize=50;fillColor=#f8cecc;strokeColor=#b85450;" parent="1" name="transform" vertex="1">
          <mxGeometry x="840" y="530" width="100" height="50" as="geometry" />
        </mxCell>
        <mxCell id="TfQsHLih08UGCaOp2INQ-27" value="&lt;div&gt;error&lt;/div&gt;&lt;div&gt;&amp;lt;--&lt;/div&gt;" style="text;html=1;align=center;verticalAlign=middle;whiteSpace=wrap;rounded=0;dashed=1;fillColor=#f5f5f5;fontColor=#333333;strokeColor=#666666;strokeWidth=2;" parent="1" name="text" vertex="1">
          <mxGeometry x="940" y="540" width="60" height="30" as="geometry" />
        </mxCell>
        <mxCell id="TfQsHLih08UGCaOp2INQ-31" style="edgeStyle=orthogonalEdgeStyle;rounded=0;orthogonalLoop=1;jettySize=auto;html=1;exitX=0.5;exitY=1;exitDx=0;exitDy=0;entryX=0.5;entryY=0;entryDx=0;entryDy=0;" parent="1" source="TfQsHLih08UGCaOp2INQ-28" target="TfQsHLih08UGCaOp2INQ-30" edge="1">
          <mxGeometry relative="1" as="geometry" />
        </mxCell>
        <mxCell id="TfQsHLih08UGCaOp2INQ-28" value="data:matrix&#xa;Parawise&#xa;Comparison" style="rectangle;fillColor=#fff2cc;strokeColor=#d6b656;" parent="1" name="data" vertex="1">
          <mxGeometry x="840" y="640" width="100" height="50" as="geometry" />
        </mxCell>
        <mxCell id="TfQsHLih08UGCaOp2INQ-33" style="edgeStyle=orthogonalEdgeStyle;rounded=0;orthogonalLoop=1;jettySize=auto;html=1;entryX=0;entryY=0.5;entryDx=0;entryDy=0;" parent="1" source="TfQsHLih08UGCaOp2INQ-30" target="TfQsHLih08UGCaOp2INQ-32" edge="1">
          <mxGeometry relative="1" as="geometry" />
        </mxCell>
        <mxCell id="TfQsHLih08UGCaOp2INQ-30" value="transform:embed" style="rounded=1;whiteSpace=wrap;html=1;arcSize=50;fillColor=#f8cecc;strokeColor=#b85450;" parent="1" name="transform" vertex="1">
          <mxGeometry x="840" y="750" width="100" height="50" as="geometry" />
        </mxCell>
        <mxCell id="TfQsHLih08UGCaOp2INQ-35" style="edgeStyle=orthogonalEdgeStyle;rounded=0;orthogonalLoop=1;jettySize=auto;html=1;entryX=0;entryY=0.5;entryDx=0;entryDy=0;" parent="1" source="TfQsHLih08UGCaOp2INQ-32" target="TfQsHLih08UGCaOp2INQ-34" edge="1">
          <mxGeometry relative="1" as="geometry" />
        </mxCell>
        <mxCell id="TfQsHLih08UGCaOp2INQ-32" value="data:matrix&#xa;Weighted Super&#xa;Matrix" style="rectangle;fillColor=#fff2cc;strokeColor=#d6b656;" parent="1" name="data" vertex="1">
          <mxGeometry x="1010" y="750" width="100" height="50" as="geometry" />
        </mxCell>
        <mxCell id="TfQsHLih08UGCaOp2INQ-34" value="transform:embed" style="rounded=1;whiteSpace=wrap;html=1;arcSize=50;fillColor=#f8cecc;strokeColor=#b85450;" parent="1" name="transform" vertex="1">
          <mxGeometry x="1180" y="750" width="100" height="50" as="geometry" />
        </mxCell>
        <mxCell id="TfQsHLih08UGCaOp2INQ-40" style="edgeStyle=orthogonalEdgeStyle;rounded=0;orthogonalLoop=1;jettySize=auto;html=1;entryX=0;entryY=0.5;entryDx=0;entryDy=0;" parent="1" source="TfQsHLih08UGCaOp2INQ-36" target="TfQsHLih08UGCaOp2INQ-39" edge="1">
          <mxGeometry relative="1" as="geometry" />
        </mxCell>
        <mxCell id="TfQsHLih08UGCaOp2INQ-36" value="model:static&#xa;Limited Weighted&#xa;Super Matrix" style="shape=hexagon;perimeter=hexagonPerimeter2;fillColor=#b0e3e6;strokeColor=#0e8088;" parent="1" name="model" vertex="1">
          <mxGeometry x="1330" y="750" width="120" height="50" as="geometry" />
        </mxCell>
        <mxCell id="TfQsHLih08UGCaOp2INQ-38" value="&lt;div&gt;error&lt;/div&gt;&lt;div&gt;--&amp;gt;&lt;/div&gt;" style="text;html=1;align=center;verticalAlign=middle;whiteSpace=wrap;rounded=0;dashed=1;fillColor=#f5f5f5;fontColor=#333333;strokeColor=#666666;strokeWidth=2;" parent="1" name="text" vertex="1">
          <mxGeometry x="1280" y="760" width="60" height="30" as="geometry" />
        </mxCell>
        <mxCell id="TfQsHLih08UGCaOp2INQ-39" value="infer:deduce" style="rounded=1;whiteSpace=wrap;html=1;arcSize=50;fillColor=#bac8d3;strokeColor=#23445d;" parent="1" name="infer:deduce" vertex="1">
          <mxGeometry x="1500" y="750" width="100" height="50" as="geometry" />
        </mxCell>
        <mxCell id="TfQsHLih08UGCaOp2INQ-42" style="edgeStyle=orthogonalEdgeStyle;rounded=0;orthogonalLoop=1;jettySize=auto;html=1;entryX=1;entryY=0.5;entryDx=0;entryDy=0;" parent="1" source="TfQsHLih08UGCaOp2INQ-41" target="TfQsHLih08UGCaOp2INQ-39" edge="1">
          <mxGeometry relative="1" as="geometry" />
        </mxCell>
        <mxCell id="TfQsHLih08UGCaOp2INQ-41" value="data&#xa;Patient Data" style="rectangle;fillColor=#fff2cc;strokeColor=#d6b656;" parent="1" name="data" vertex="1">
          <mxGeometry x="1650" y="750" width="100" height="50" as="geometry" />
        </mxCell>
        <mxCell id="TfQsHLih08UGCaOp2INQ-48" style="edgeStyle=orthogonalEdgeStyle;rounded=0;orthogonalLoop=1;jettySize=auto;html=1;exitX=0.5;exitY=1;exitDx=0;exitDy=0;entryX=1;entryY=0.5;entryDx=0;entryDy=0;" parent="1" source="TfQsHLih08UGCaOp2INQ-43" target="TfQsHLih08UGCaOp2INQ-46" edge="1">
          <mxGeometry relative="1" as="geometry" />
        </mxCell>
        <mxCell id="TfQsHLih08UGCaOp2INQ-43" value="data:tensor&#xa;Damage Severity" style="rectangle;fillColor=#fff2cc;strokeColor=#d6b656;" parent="1" name="data" vertex="1">
          <mxGeometry x="1500" y="860" width="100" height="50" as="geometry" />
        </mxCell>
        <mxCell id="TfQsHLih08UGCaOp2INQ-45" value="&lt;div&gt;error&lt;/div&gt;&lt;div&gt;&amp;lt;--&lt;/div&gt;" style="text;html=1;align=center;verticalAlign=middle;whiteSpace=wrap;rounded=0;dashed=1;fillColor=#f5f5f5;fontColor=#333333;strokeColor=#666666;strokeWidth=2;horizontal=0;" parent="1" name="text" vertex="1">
          <mxGeometry x="1535" y="800" width="30" height="60" as="geometry" />
        </mxCell>
        <mxCell id="TfQsHLih08UGCaOp2INQ-50" style="edgeStyle=orthogonalEdgeStyle;rounded=0;orthogonalLoop=1;jettySize=auto;html=1;exitX=0;exitY=0.5;exitDx=0;exitDy=0;entryX=1;entryY=0.5;entryDx=0;entryDy=0;" parent="1" source="TfQsHLih08UGCaOp2INQ-46" target="TfQsHLih08UGCaOp2INQ-49" edge="1">
          <mxGeometry relative="1" as="geometry" />
        </mxCell>
        <mxCell id="TfQsHLih08UGCaOp2INQ-46" value="transform:embed" style="rounded=1;whiteSpace=wrap;html=1;arcSize=50;fillColor=#f8cecc;strokeColor=#b85450;" parent="1" name="transform" vertex="1">
          <mxGeometry x="1340" y="970" width="100" height="50" as="geometry" />
        </mxCell>
        <mxCell id="TfQsHLih08UGCaOp2INQ-49" value="symbol&#xa;Damage Severity" style="rectangle;fillColor=#dae8fc;strokeColor=#6c8ebf;" parent="1" name="symbol" vertex="1">
          <mxGeometry x="1180" y="970" width="100" height="50" as="geometry" />
        </mxCell>
      </root>
    </mxGraphModel>
  </diagram>
  <diagram name="Copy of Page-1" id="iRnKiN3x8ecS9jn7VzNa">
    <mxGraphModel dx="1572" dy="942" grid="1" gridSize="10" guides="1" tooltips="1" connect="1" arrows="1" fold="1" page="1" pageScale="1" pageWidth="3300" pageHeight="4681" math="0" shadow="0">
      <root>
        <mxCell id="Cv9tqUdbUmMxnPKCn7Bh-0" />
        <mxCell id="Cv9tqUdbUmMxnPKCn7Bh-1" parent="Cv9tqUdbUmMxnPKCn7Bh-0" />
        <mxCell id="Cv9tqUdbUmMxnPKCn7Bh-2" value="actor&#xa;Diabetes Experts" style="triangle;fillColor=#ffe6cc;strokeColor=#d79b00;fontColor=#000000;" name="actor" vertex="1" parent="Cv9tqUdbUmMxnPKCn7Bh-1">
          <mxGeometry x="680" y="310" width="100" height="50" as="geometry" />
        </mxCell>
        <mxCell id="Cv9tqUdbUmMxnPKCn7Bh-3" style="edgeStyle=orthogonalEdgeStyle;rounded=0;orthogonalLoop=1;jettySize=auto;html=1;entryX=0;entryY=0.5;entryDx=0;entryDy=0;" edge="1" parent="Cv9tqUdbUmMxnPKCn7Bh-1" source="Cv9tqUdbUmMxnPKCn7Bh-4" target="Cv9tqUdbUmMxnPKCn7Bh-6">
          <mxGeometry relative="1" as="geometry" />
        </mxCell>
        <mxCell id="Cv9tqUdbUmMxnPKCn7Bh-4" value="generate:train" style="rounded=1;whiteSpace=wrap;html=1;arcSize=50;fillColor=#e1d5e7;strokeColor=#9673a6;" name="generate:train" vertex="1" parent="Cv9tqUdbUmMxnPKCn7Bh-1">
          <mxGeometry x="840" y="310" width="100" height="50" as="geometry" />
        </mxCell>
        <mxCell id="Cv9tqUdbUmMxnPKCn7Bh-5" value="&lt;div&gt;error&lt;/div&gt;&lt;div&gt;--&amp;gt;&lt;/div&gt;" style="text;html=1;align=center;verticalAlign=middle;whiteSpace=wrap;rounded=0;dashed=1;fillColor=#f5f5f5;fontColor=#333333;strokeColor=#666666;strokeWidth=2;" name="text" vertex="1" parent="Cv9tqUdbUmMxnPKCn7Bh-1">
          <mxGeometry x="780" y="320" width="60" height="30" as="geometry" />
        </mxCell>
        <mxCell id="fbcGOd-tGUechGRCTEbU-1" style="edgeStyle=orthogonalEdgeStyle;rounded=0;orthogonalLoop=1;jettySize=auto;html=1;exitX=1;exitY=0.5;exitDx=0;exitDy=0;entryX=0;entryY=0.5;entryDx=0;entryDy=0;" edge="1" parent="Cv9tqUdbUmMxnPKCn7Bh-1" source="Cv9tqUdbUmMxnPKCn7Bh-6" target="Cv9tqUdbUmMxnPKCn7Bh-8">
          <mxGeometry relative="1" as="geometry" />
        </mxCell>
        <mxCell id="Cv9tqUdbUmMxnPKCn7Bh-6" value="model:semantic&#xa;Relationships" style="shape=hexagon;perimeter=hexagonPerimeter2;fillColor=#b0e3e6;strokeColor=#0e8088;" name="model" vertex="1" parent="Cv9tqUdbUmMxnPKCn7Bh-1" tooltip="â ï¸ Node not part of any valid pattern.">
          <mxGeometry x="1000" y="310" width="120" height="50" as="geometry" />
        </mxCell>
        <mxCell id="Cv9tqUdbUmMxnPKCn7Bh-7" style="edgeStyle=orthogonalEdgeStyle;rounded=0;orthogonalLoop=1;jettySize=auto;html=1;entryX=0;entryY=0.5;entryDx=0;entryDy=0;" edge="1" parent="Cv9tqUdbUmMxnPKCn7Bh-1" source="Cv9tqUdbUmMxnPKCn7Bh-8" target="Cv9tqUdbUmMxnPKCn7Bh-11">
          <mxGeometry relative="1" as="geometry" />
        </mxCell>
        <mxCell id="Cv9tqUdbUmMxnPKCn7Bh-8" value="transform:embed" style="rounded=1;whiteSpace=wrap;html=1;arcSize=50;fillColor=#f8cecc;strokeColor=#b85450;" name="transform" vertex="1" parent="Cv9tqUdbUmMxnPKCn7Bh-1" tooltip="â ï¸ Node not part of any valid pattern.">
          <mxGeometry x="1180" y="310" width="100" height="50" as="geometry" />
        </mxCell>
        <mxCell id="Cv9tqUdbUmMxnPKCn7Bh-10" style="edgeStyle=orthogonalEdgeStyle;rounded=0;orthogonalLoop=1;jettySize=auto;html=1;entryX=0;entryY=0.5;entryDx=0;entryDy=0;" edge="1" parent="Cv9tqUdbUmMxnPKCn7Bh-1" source="Cv9tqUdbUmMxnPKCn7Bh-11" target="Cv9tqUdbUmMxnPKCn7Bh-13">
          <mxGeometry relative="1" as="geometry" />
        </mxCell>
        <mxCell id="Cv9tqUdbUmMxnPKCn7Bh-11" value="data:matrix&#xa;Single MatrixÂ &#xa;Clusters and sub-criteria" style="rectangle;fillColor=#fff2cc;strokeColor=#d6b656;" name="data" vertex="1" parent="Cv9tqUdbUmMxnPKCn7Bh-1" tooltip="â ï¸ Node not part of any valid pattern.">
          <mxGeometry x="1340" y="310" width="100" height="50" as="geometry" />
        </mxCell>
        <mxCell id="Cv9tqUdbUmMxnPKCn7Bh-12" style="edgeStyle=orthogonalEdgeStyle;rounded=0;orthogonalLoop=1;jettySize=auto;html=1;entryX=0.5;entryY=0;entryDx=0;entryDy=0;" edge="1" parent="Cv9tqUdbUmMxnPKCn7Bh-1" source="Cv9tqUdbUmMxnPKCn7Bh-13" target="Cv9tqUdbUmMxnPKCn7Bh-15">
          <mxGeometry relative="1" as="geometry" />
        </mxCell>
        <mxCell id="Cv9tqUdbUmMxnPKCn7Bh-13" value="transform:embed" style="rounded=1;whiteSpace=wrap;html=1;arcSize=50;fillColor=#f8cecc;strokeColor=#b85450;" name="transform" vertex="1" parent="Cv9tqUdbUmMxnPKCn7Bh-1">
          <mxGeometry x="1500" y="310" width="100" height="50" as="geometry" />
        </mxCell>
        <mxCell id="Cv9tqUdbUmMxnPKCn7Bh-14" style="edgeStyle=orthogonalEdgeStyle;rounded=0;orthogonalLoop=1;jettySize=auto;html=1;entryX=0.5;entryY=0;entryDx=0;entryDy=0;" edge="1" parent="Cv9tqUdbUmMxnPKCn7Bh-1" source="Cv9tqUdbUmMxnPKCn7Bh-15" target="Cv9tqUdbUmMxnPKCn7Bh-17">
          <mxGeometry relative="1" as="geometry" />
        </mxCell>
        <mxCell id="Cv9tqUdbUmMxnPKCn7Bh-15" value="data:matrix&#xa;Normalized&#xa;Matrix" style="rectangle;fillColor=#fff2cc;strokeColor=#d6b656;" name="data" vertex="1" parent="Cv9tqUdbUmMxnPKCn7Bh-1">
          <mxGeometry x="1500" y="420" width="100" height="50" as="geometry" />
        </mxCell>
        <mxCell id="Cv9tqUdbUmMxnPKCn7Bh-16" style="edgeStyle=orthogonalEdgeStyle;rounded=0;orthogonalLoop=1;jettySize=auto;html=1;entryX=1;entryY=0.5;entryDx=0;entryDy=0;" edge="1" parent="Cv9tqUdbUmMxnPKCn7Bh-1" source="Cv9tqUdbUmMxnPKCn7Bh-17" target="Cv9tqUdbUmMxnPKCn7Bh-19">
          <mxGeometry relative="1" as="geometry" />
        </mxCell>
        <mxCell id="Cv9tqUdbUmMxnPKCn7Bh-17" value="transform:embed" style="rounded=1;whiteSpace=wrap;html=1;arcSize=50;fillColor=#f8cecc;strokeColor=#b85450;" name="transform" vertex="1" parent="Cv9tqUdbUmMxnPKCn7Bh-1">
          <mxGeometry x="1500" y="530" width="100" height="50" as="geometry" />
        </mxCell>
        <mxCell id="Cv9tqUdbUmMxnPKCn7Bh-18" style="edgeStyle=orthogonalEdgeStyle;rounded=0;orthogonalLoop=1;jettySize=auto;html=1;entryX=1;entryY=0.5;entryDx=0;entryDy=0;" edge="1" parent="Cv9tqUdbUmMxnPKCn7Bh-1" source="Cv9tqUdbUmMxnPKCn7Bh-19" target="Cv9tqUdbUmMxnPKCn7Bh-21">
          <mxGeometry relative="1" as="geometry" />
        </mxCell>
        <mxCell id="Cv9tqUdbUmMxnPKCn7Bh-19" value="data:matrix&#xa;Total Relationship&#xa;Matrix" style="rectangle;fillColor=#fff2cc;strokeColor=#d6b656;" name="data" vertex="1" parent="Cv9tqUdbUmMxnPKCn7Bh-1">
          <mxGeometry x="1340" y="530" width="100" height="50" as="geometry" />
        </mxCell>
        <mxCell id="Cv9tqUdbUmMxnPKCn7Bh-20" style="edgeStyle=orthogonalEdgeStyle;rounded=0;orthogonalLoop=1;jettySize=auto;html=1;entryX=1;entryY=0.5;entryDx=0;entryDy=0;" edge="1" parent="Cv9tqUdbUmMxnPKCn7Bh-1" source="Cv9tqUdbUmMxnPKCn7Bh-21" target="Cv9tqUdbUmMxnPKCn7Bh-22">
          <mxGeometry relative="1" as="geometry" />
        </mxCell>
        <mxCell id="Cv9tqUdbUmMxnPKCn7Bh-21" value="generate:train" style="rounded=1;whiteSpace=wrap;html=1;arcSize=50;fillColor=#e1d5e7;strokeColor=#9673a6;" name="generate:train" vertex="1" parent="Cv9tqUdbUmMxnPKCn7Bh-1">
          <mxGeometry x="1180" y="530" width="100" height="50" as="geometry" />
        </mxCell>
        <mxCell id="fbcGOd-tGUechGRCTEbU-2" style="edgeStyle=orthogonalEdgeStyle;rounded=0;orthogonalLoop=1;jettySize=auto;html=1;exitX=0;exitY=0.5;exitDx=0;exitDy=0;entryX=1;entryY=0.5;entryDx=0;entryDy=0;" edge="1" parent="Cv9tqUdbUmMxnPKCn7Bh-1" source="Cv9tqUdbUmMxnPKCn7Bh-22" target="Cv9tqUdbUmMxnPKCn7Bh-24">
          <mxGeometry relative="1" as="geometry" />
        </mxCell>
        <mxCell id="Cv9tqUdbUmMxnPKCn7Bh-22" value="model:semantic&#xa;Relationship&#xa;Diagram" style="shape=hexagon;perimeter=hexagonPerimeter2;fillColor=#b0e3e6;strokeColor=#0e8088;" name="model" vertex="1" parent="Cv9tqUdbUmMxnPKCn7Bh-1" tooltip="â ï¸ Node not part of any valid pattern.">
          <mxGeometry x="1000" y="530" width="120" height="50" as="geometry" />
        </mxCell>
        <mxCell id="Cv9tqUdbUmMxnPKCn7Bh-23" style="edgeStyle=orthogonalEdgeStyle;rounded=0;orthogonalLoop=1;jettySize=auto;html=1;exitX=0.5;exitY=1;exitDx=0;exitDy=0;entryX=0.5;entryY=0;entryDx=0;entryDy=0;" edge="1" parent="Cv9tqUdbUmMxnPKCn7Bh-1" source="Cv9tqUdbUmMxnPKCn7Bh-24" target="Cv9tqUdbUmMxnPKCn7Bh-27">
          <mxGeometry relative="1" as="geometry" />
        </mxCell>
        <mxCell id="Cv9tqUdbUmMxnPKCn7Bh-24" value="transform:embed" style="rounded=1;whiteSpace=wrap;html=1;arcSize=50;fillColor=#f8cecc;strokeColor=#b85450;" name="transform" vertex="1" parent="Cv9tqUdbUmMxnPKCn7Bh-1" tooltip="â ï¸ Node not part of any valid pattern.">
          <mxGeometry x="840" y="530" width="100" height="50" as="geometry" />
        </mxCell>
        <mxCell id="Cv9tqUdbUmMxnPKCn7Bh-26" style="edgeStyle=orthogonalEdgeStyle;rounded=0;orthogonalLoop=1;jettySize=auto;html=1;exitX=0.5;exitY=1;exitDx=0;exitDy=0;entryX=0.5;entryY=0;entryDx=0;entryDy=0;" edge="1" parent="Cv9tqUdbUmMxnPKCn7Bh-1" source="Cv9tqUdbUmMxnPKCn7Bh-27" target="Cv9tqUdbUmMxnPKCn7Bh-29">
          <mxGeometry relative="1" as="geometry" />
        </mxCell>
        <mxCell id="Cv9tqUdbUmMxnPKCn7Bh-27" value="data:matrix&#xa;Parawise&#xa;Comparison" style="rectangle;fillColor=#fff2cc;strokeColor=#d6b656;" name="data" vertex="1" parent="Cv9tqUdbUmMxnPKCn7Bh-1" tooltip="â ï¸ Node not part of any valid pattern.">
          <mxGeometry x="840" y="640" width="100" height="50" as="geometry" />
        </mxCell>
        <mxCell id="Cv9tqUdbUmMxnPKCn7Bh-28" style="edgeStyle=orthogonalEdgeStyle;rounded=0;orthogonalLoop=1;jettySize=auto;html=1;entryX=0;entryY=0.5;entryDx=0;entryDy=0;" edge="1" parent="Cv9tqUdbUmMxnPKCn7Bh-1" source="Cv9tqUdbUmMxnPKCn7Bh-29" target="Cv9tqUdbUmMxnPKCn7Bh-31">
          <mxGeometry relative="1" as="geometry" />
        </mxCell>
        <mxCell id="Cv9tqUdbUmMxnPKCn7Bh-29" value="transform:embed" style="rounded=1;whiteSpace=wrap;html=1;arcSize=50;fillColor=#f8cecc;strokeColor=#b85450;" name="transform" vertex="1" parent="Cv9tqUdbUmMxnPKCn7Bh-1">
          <mxGeometry x="840" y="750" width="100" height="50" as="geometry" />
        </mxCell>
        <mxCell id="Cv9tqUdbUmMxnPKCn7Bh-30" style="edgeStyle=orthogonalEdgeStyle;rounded=0;orthogonalLoop=1;jettySize=auto;html=1;entryX=0;entryY=0.5;entryDx=0;entryDy=0;" edge="1" parent="Cv9tqUdbUmMxnPKCn7Bh-1" source="Cv9tqUdbUmMxnPKCn7Bh-31" target="Cv9tqUdbUmMxnPKCn7Bh-32">
          <mxGeometry relative="1" as="geometry" />
        </mxCell>
        <mxCell id="Cv9tqUdbUmMxnPKCn7Bh-31" value="data:matrix&#xa;Weighted Super&#xa;Matrix" style="rectangle;fillColor=#fff2cc;strokeColor=#d6b656;" name="data" vertex="1" parent="Cv9tqUdbUmMxnPKCn7Bh-1" tooltip="â ï¸ Node not part of any valid pattern.">
          <mxGeometry x="1010" y="750" width="100" height="50" as="geometry" />
        </mxCell>
        <mxCell id="fbcGOd-tGUechGRCTEbU-3" style="edgeStyle=orthogonalEdgeStyle;rounded=0;orthogonalLoop=1;jettySize=auto;html=1;exitX=1;exitY=0.5;exitDx=0;exitDy=0;entryX=0;entryY=0.5;entryDx=0;entryDy=0;" edge="1" parent="Cv9tqUdbUmMxnPKCn7Bh-1" source="Cv9tqUdbUmMxnPKCn7Bh-32" target="Cv9tqUdbUmMxnPKCn7Bh-34">
          <mxGeometry relative="1" as="geometry" />
        </mxCell>
        <mxCell id="Cv9tqUdbUmMxnPKCn7Bh-32" value="transform:embed" style="rounded=1;whiteSpace=wrap;html=1;arcSize=50;fillColor=#f8cecc;strokeColor=#b85450;" name="transform" vertex="1" parent="Cv9tqUdbUmMxnPKCn7Bh-1" tooltip="â ï¸ Node not part of any valid pattern.">
          <mxGeometry x="1180" y="750" width="100" height="50" as="geometry" />
        </mxCell>
        <mxCell id="Cv9tqUdbUmMxnPKCn7Bh-33" style="edgeStyle=orthogonalEdgeStyle;rounded=0;orthogonalLoop=1;jettySize=auto;html=1;entryX=0;entryY=0.5;entryDx=0;entryDy=0;" edge="1" parent="Cv9tqUdbUmMxnPKCn7Bh-1" source="Cv9tqUdbUmMxnPKCn7Bh-34" target="Cv9tqUdbUmMxnPKCn7Bh-36">
          <mxGeometry relative="1" as="geometry" />
        </mxCell>
        <mxCell id="Cv9tqUdbUmMxnPKCn7Bh-34" value="model:static&#xa;Limited Weighted&#xa;Super Matrix" style="shape=hexagon;perimeter=hexagonPerimeter2;fillColor=#b0e3e6;strokeColor=#0e8088;" name="model" vertex="1" parent="Cv9tqUdbUmMxnPKCn7Bh-1">
          <mxGeometry x="1330" y="750" width="120" height="50" as="geometry" />
        </mxCell>
        <mxCell id="fbcGOd-tGUechGRCTEbU-5" style="edgeStyle=orthogonalEdgeStyle;rounded=0;orthogonalLoop=1;jettySize=auto;html=1;exitX=0.5;exitY=1;exitDx=0;exitDy=0;entryX=0.5;entryY=0;entryDx=0;entryDy=0;" edge="1" parent="Cv9tqUdbUmMxnPKCn7Bh-1" source="Cv9tqUdbUmMxnPKCn7Bh-36" target="Cv9tqUdbUmMxnPKCn7Bh-40">
          <mxGeometry relative="1" as="geometry" />
        </mxCell>
        <mxCell id="Cv9tqUdbUmMxnPKCn7Bh-36" value="infer:deduce" style="rounded=1;whiteSpace=wrap;html=1;arcSize=50;fillColor=#bac8d3;strokeColor=#23445d;" name="infer:deduce" vertex="1" parent="Cv9tqUdbUmMxnPKCn7Bh-1">
          <mxGeometry x="1500" y="750" width="100" height="50" as="geometry" />
        </mxCell>
        <mxCell id="Cv9tqUdbUmMxnPKCn7Bh-37" style="edgeStyle=orthogonalEdgeStyle;rounded=0;orthogonalLoop=1;jettySize=auto;html=1;entryX=1;entryY=0.5;entryDx=0;entryDy=0;" edge="1" parent="Cv9tqUdbUmMxnPKCn7Bh-1" source="Cv9tqUdbUmMxnPKCn7Bh-38" target="Cv9tqUdbUmMxnPKCn7Bh-36">
          <mxGeometry relative="1" as="geometry" />
        </mxCell>
        <mxCell id="Cv9tqUdbUmMxnPKCn7Bh-38" value="data&#xa;Patient Data" style="rectangle;fillColor=#fff2cc;strokeColor=#d6b656;" name="data" vertex="1" parent="Cv9tqUdbUmMxnPKCn7Bh-1">
          <mxGeometry x="1650" y="750" width="100" height="50" as="geometry" />
        </mxCell>
        <mxCell id="Cv9tqUdbUmMxnPKCn7Bh-39" style="edgeStyle=orthogonalEdgeStyle;rounded=0;orthogonalLoop=1;jettySize=auto;html=1;exitX=0.5;exitY=1;exitDx=0;exitDy=0;entryX=1;entryY=0.5;entryDx=0;entryDy=0;" edge="1" parent="Cv9tqUdbUmMxnPKCn7Bh-1" source="Cv9tqUdbUmMxnPKCn7Bh-40" target="Cv9tqUdbUmMxnPKCn7Bh-43">
          <mxGeometry relative="1" as="geometry" />
        </mxCell>
        <mxCell id="Cv9tqUdbUmMxnPKCn7Bh-40" value="data:tensor&#xa;Damage Severity" style="rectangle;fillColor=#fff2cc;strokeColor=#d6b656;" name="data" vertex="1" parent="Cv9tqUdbUmMxnPKCn7Bh-1" tooltip="â ï¸ Node not part of any valid pattern.">
          <mxGeometry x="1500" y="860" width="100" height="50" as="geometry" />
        </mxCell>
        <mxCell id="Cv9tqUdbUmMxnPKCn7Bh-42" style="edgeStyle=orthogonalEdgeStyle;rounded=0;orthogonalLoop=1;jettySize=auto;html=1;exitX=0;exitY=0.5;exitDx=0;exitDy=0;entryX=1;entryY=0.5;entryDx=0;entryDy=0;" edge="1" parent="Cv9tqUdbUmMxnPKCn7Bh-1" source="Cv9tqUdbUmMxnPKCn7Bh-43" target="Cv9tqUdbUmMxnPKCn7Bh-44">
          <mxGeometry relative="1" as="geometry" />
        </mxCell>
        <mxCell id="Cv9tqUdbUmMxnPKCn7Bh-43" value="transform:embed" style="rounded=1;whiteSpace=wrap;html=1;arcSize=50;fillColor=#f8cecc;strokeColor=#b85450;" name="transform" vertex="1" parent="Cv9tqUdbUmMxnPKCn7Bh-1" tooltip="â ï¸ Node not part of any valid pattern.">
          <mxGeometry x="1340" y="970" width="100" height="50" as="geometry" />
        </mxCell>
        <mxCell id="Cv9tqUdbUmMxnPKCn7Bh-44" value="symbol&#xa;Damage Severity" style="rectangle;fillColor=#dae8fc;strokeColor=#6c8ebf;" name="symbol" vertex="1" parent="Cv9tqUdbUmMxnPKCn7Bh-1" tooltip="â ï¸ Node not part of any valid pattern.">
          <mxGeometry x="1180" y="970" width="100" height="50" as="geometry" />
        </mxCell>
        <mxCell id="H__QxfuFx5_0U5xKgCvl-0" value="&lt;div&gt;error&lt;/div&gt;" style="text;html=1;align=center;verticalAlign=middle;whiteSpace=wrap;rounded=0;dashed=1;fillColor=#f5f5f5;fontColor=#333333;strokeColor=#666666;strokeWidth=2;" name="text" vertex="1" parent="Cv9tqUdbUmMxnPKCn7Bh-1">
          <mxGeometry x="1200" y="370" width="60" height="30" as="geometry" />
        </mxCell>
        <mxCell id="H__QxfuFx5_0U5xKgCvl-1" value="&lt;div&gt;error&lt;/div&gt;" style="text;html=1;align=center;verticalAlign=middle;whiteSpace=wrap;rounded=0;dashed=1;fillColor=#f5f5f5;fontColor=#333333;strokeColor=#666666;strokeWidth=2;" name="text" vertex="1" parent="Cv9tqUdbUmMxnPKCn7Bh-1">
          <mxGeometry x="930" y="590" width="60" height="30" as="geometry" />
        </mxCell>
        <mxCell id="H__QxfuFx5_0U5xKgCvl-2" value="&lt;div&gt;error&lt;/div&gt;" style="text;html=1;align=center;verticalAlign=middle;whiteSpace=wrap;rounded=0;dashed=1;fillColor=#f5f5f5;fontColor=#333333;strokeColor=#666666;strokeWidth=2;" name="text" vertex="1" parent="Cv9tqUdbUmMxnPKCn7Bh-1">
          <mxGeometry x="1200" y="710" width="60" height="30" as="geometry" />
        </mxCell>
        <mxCell id="H__QxfuFx5_0U5xKgCvl-3" value="&lt;div&gt;error&lt;/div&gt;" style="text;html=1;align=center;verticalAlign=middle;whiteSpace=wrap;rounded=0;dashed=1;fillColor=#f5f5f5;fontColor=#333333;strokeColor=#666666;strokeWidth=2;" name="text" vertex="1" parent="Cv9tqUdbUmMxnPKCn7Bh-1">
          <mxGeometry x="1470" y="940" width="60" height="30" as="geometry" />
        </mxCell>
      </root>
    </mxGraphModel>
  </diagram>
</mxfile>
